<svg width="200" height="200" viewBox="0 0 200 200" fill="none" xmlns="http://www.w3.org/2000/svg">
<circle cx="100" cy="100" r="98.8095" fill="white" stroke="#0192AD" stroke-width="2.38095"/>
<mask id="mask0_35_2507" style="mask-type:alpha" maskUnits="userSpaceOnUse" x="0" y="0" width="200" height="200">
<circle cx="100" cy="100" r="98.8095" fill="white" stroke="white" stroke-width="2.38095"/>
</mask>
<g mask="url(#mask0_35_2507)">
<path opacity="0.1" fill-rule="evenodd" clip-rule="evenodd" d="M251.625 52.5815C251.625 52.5815 217.861 29.4565 161.144 48.8356C104.427 68.2146 -28.7505 61.4918 -28.7505 61.4918L-13.3755 256.239H239.5L251.625 52.5815Z" fill="#0192AD"/>
<path opacity="0.295596" fill-rule="evenodd" clip-rule="evenodd" d="M-35.5243 82.7865C-35.5243 82.7865 47.1488 28.3093 103.866 47.6884C160.583 67.0674 229.375 58.5718 229.375 58.5718L229.476 261.444H-107.5L-103.274 99.1968L-35.5243 82.7865Z" fill="#0192AD"/>
<path opacity="0.85" fill-rule="evenodd" clip-rule="evenodd" d="M-25 61.7147C-25 61.7147 41.875 45.4647 98.5922 64.8437C155.309 84.2228 240 43.125 240 43.125V265.372H-12.875L-25 61.7147Z" fill="#0192AD"/>
<path d="M86.2222 85.21C85.5175 85.21 84.8829 85.0933 84.3182 84.86C83.7582 84.622 83.2939 84.286 82.9252 83.852C82.5612 83.418 82.3232 82.9023 82.2112 82.305L83.2612 82.13C83.4292 82.7833 83.7839 83.2967 84.3252 83.67C84.8665 84.0387 85.5129 84.223 86.2642 84.223C86.7589 84.223 87.2022 84.146 87.5942 83.992C87.9862 83.8333 88.2942 83.6093 88.5182 83.32C88.7422 83.0307 88.8542 82.6877 88.8542 82.291C88.8542 82.0297 88.8075 81.808 88.7142 81.626C88.6209 81.4393 88.4972 81.2853 88.3432 81.164C88.1892 81.0427 88.0212 80.9423 87.8392 80.863C87.6572 80.779 87.4799 80.7113 87.3072 80.66L84.7522 79.897C84.4442 79.8083 84.1595 79.6963 83.8982 79.561C83.6369 79.421 83.4082 79.2553 83.2122 79.064C83.0209 78.868 82.8715 78.6393 82.7642 78.378C82.6569 78.1167 82.6032 77.818 82.6032 77.482C82.6032 76.9127 82.7525 76.4203 83.0512 76.005C83.3499 75.5897 83.7582 75.27 84.2762 75.046C84.7942 74.822 85.3845 74.7123 86.0472 74.717C86.7192 74.717 87.3189 74.836 87.8462 75.074C88.3782 75.312 88.8169 75.6527 89.1622 76.096C89.5075 76.5347 89.7362 77.055 89.8482 77.657L88.7702 77.853C88.7002 77.4143 88.5392 77.034 88.2872 76.712C88.0352 76.39 87.7132 76.1427 87.3212 75.97C86.9339 75.7927 86.5069 75.7017 86.0402 75.697C85.5875 75.697 85.1839 75.774 84.8292 75.928C84.4792 76.0773 84.2015 76.2827 83.9962 76.544C83.7909 76.8053 83.6882 77.104 83.6882 77.44C83.6882 77.7807 83.7815 78.0537 83.9682 78.259C84.1595 78.4643 84.3929 78.6253 84.6682 78.742C84.9482 78.8587 85.2189 78.9543 85.4802 79.029L87.4542 79.61C87.6595 79.666 87.8999 79.7477 88.1752 79.855C88.4552 79.9577 88.7259 80.107 88.9872 80.303C89.2532 80.4943 89.4725 80.7463 89.6452 81.059C89.8179 81.3717 89.9042 81.7683 89.9042 82.249C89.9042 82.7157 89.8109 83.1333 89.6242 83.502C89.4422 83.8707 89.1832 84.181 88.8472 84.433C88.5159 84.685 88.1262 84.8763 87.6782 85.007C87.2349 85.1423 86.7495 85.21 86.2222 85.21ZM95.4651 85C95.0405 85.0887 94.6205 85.1237 94.2051 85.105C93.7945 85.0863 93.4258 84.9977 93.0991 84.839C92.7771 84.6803 92.5321 84.433 92.3641 84.097C92.2288 83.817 92.1541 83.5347 92.1401 83.25C92.1308 82.9607 92.1261 82.6317 92.1261 82.263V75.34H93.1481V82.221C93.1481 82.5383 93.1505 82.8043 93.1551 83.019C93.1645 83.229 93.2135 83.4157 93.3021 83.579C93.4701 83.8917 93.7361 84.0783 94.1001 84.139C94.4688 84.1997 94.9238 84.1857 95.4651 84.097V85ZM90.5091 78.322V77.44H95.4651V78.322H90.5091ZM99.8802 85.21C99.1428 85.21 98.5035 85.0467 97.9622 84.72C97.4255 84.3933 97.0078 83.9337 96.7092 83.341C96.4105 82.7483 96.2612 82.053 96.2612 81.255C96.2612 80.429 96.4082 79.715 96.7022 79.113C96.9962 78.511 97.4092 78.0467 97.9412 77.72C98.4778 77.3933 99.1102 77.23 99.8382 77.23C100.585 77.23 101.222 77.4027 101.749 77.748C102.277 78.0887 102.676 78.5787 102.946 79.218C103.217 79.8573 103.341 80.6203 103.317 81.507H102.267V81.143C102.249 80.163 102.036 79.4233 101.63 78.924C101.229 78.4247 100.641 78.175 99.8662 78.175C99.0542 78.175 98.4312 78.4387 97.9972 78.966C97.5678 79.4933 97.3532 80.2447 97.3532 81.22C97.3532 82.172 97.5678 82.9117 97.9972 83.439C98.4312 83.9617 99.0448 84.223 99.8382 84.223C100.38 84.223 100.851 84.0993 101.252 83.852C101.658 83.6 101.978 83.2383 102.211 82.767L103.17 83.138C102.872 83.796 102.431 84.307 101.847 84.671C101.269 85.0303 100.613 85.21 99.8802 85.21ZM96.9892 81.507V80.646H102.764V81.507H96.9892ZM108.061 85.21C107.365 85.21 106.777 85.035 106.297 84.685C105.816 84.3303 105.452 83.852 105.205 83.25C104.957 82.6433 104.834 81.9643 104.834 81.213C104.834 80.4477 104.957 79.7663 105.205 79.169C105.457 78.567 105.825 78.0933 106.311 77.748C106.796 77.4027 107.393 77.23 108.103 77.23C108.793 77.23 109.386 77.405 109.881 77.755C110.375 78.105 110.753 78.581 111.015 79.183C111.281 79.785 111.414 80.4617 111.414 81.213C111.414 81.969 111.281 82.648 111.015 83.25C110.749 83.852 110.366 84.3303 109.867 84.685C109.367 85.035 108.765 85.21 108.061 85.21ZM104.659 88.36V77.44H105.583V83.131H105.695V88.36H104.659ZM107.956 84.251C108.483 84.251 108.922 84.118 109.272 83.852C109.622 83.586 109.883 83.2243 110.056 82.767C110.233 82.305 110.322 81.787 110.322 81.213C110.322 80.6437 110.235 80.1303 110.063 79.673C109.89 79.2157 109.626 78.854 109.272 78.588C108.922 78.322 108.476 78.189 107.935 78.189C107.407 78.189 106.969 78.3173 106.619 78.574C106.273 78.8307 106.014 79.1877 105.842 79.645C105.669 80.0977 105.583 80.6203 105.583 81.213C105.583 81.7963 105.669 82.319 105.842 82.781C106.014 83.2383 106.276 83.5977 106.626 83.859C106.976 84.1203 107.419 84.251 107.956 84.251ZM115.703 85.203C114.817 85.203 114.086 85.0117 113.512 84.629C112.943 84.2463 112.593 83.7143 112.462 83.033L113.512 82.858C113.624 83.2873 113.879 83.6303 114.275 83.887C114.677 84.139 115.171 84.265 115.759 84.265C116.333 84.265 116.786 84.146 117.117 83.908C117.449 83.6653 117.614 83.3363 117.614 82.921C117.614 82.6877 117.561 82.4987 117.453 82.354C117.351 82.2047 117.138 82.067 116.816 81.941C116.494 81.815 116.014 81.6657 115.374 81.493C114.688 81.3063 114.152 81.1197 113.764 80.933C113.377 80.7463 113.102 80.5317 112.938 80.289C112.775 80.0417 112.693 79.7407 112.693 79.386C112.693 78.9567 112.815 78.581 113.057 78.259C113.3 77.9323 113.636 77.6803 114.065 77.503C114.495 77.321 114.994 77.23 115.563 77.23C116.133 77.23 116.641 77.3233 117.089 77.51C117.542 77.692 117.906 77.9487 118.181 78.28C118.457 78.6113 118.62 78.9963 118.671 79.435L117.621 79.624C117.551 79.1807 117.33 78.8307 116.956 78.574C116.588 78.3127 116.119 78.1773 115.549 78.168C115.013 78.154 114.576 78.2567 114.24 78.476C113.904 78.6907 113.736 78.9777 113.736 79.337C113.736 79.5377 113.797 79.7103 113.918 79.855C114.04 79.995 114.259 80.128 114.576 80.254C114.898 80.38 115.356 80.5177 115.948 80.667C116.644 80.8443 117.19 81.031 117.586 81.227C117.983 81.423 118.265 81.654 118.433 81.92C118.601 82.186 118.685 82.515 118.685 82.907C118.685 83.621 118.419 84.1833 117.887 84.594C117.36 85 116.632 85.203 115.703 85.203Z" fill="white"/>
<path d="M79.0185 123L87.3065 102.696H76.8425V99.96H90.3625V102.696L82.0905 123H79.0185ZM101.985 123.48C100.491 123.48 99.1581 123.144 97.9848 122.472C96.8221 121.789 95.8994 120.867 95.2168 119.704C94.5448 118.531 94.2088 117.197 94.2088 115.704V107.256C94.2088 105.763 94.5448 104.429 95.2168 103.256C95.8994 102.083 96.8221 101.16 97.9848 100.488C99.1581 99.816 100.491 99.48 101.985 99.48C103.478 99.48 104.811 99.816 105.985 100.488C107.158 101.16 108.081 102.083 108.753 103.256C109.425 104.429 109.761 105.763 109.761 107.256V115.704C109.761 117.197 109.425 118.531 108.753 119.704C108.081 120.867 107.158 121.789 105.985 122.472C104.811 123.144 103.478 123.48 101.985 123.48ZM101.985 120.744C102.891 120.744 103.713 120.525 104.449 120.088C105.185 119.651 105.771 119.064 106.209 118.328C106.646 117.581 106.865 116.76 106.865 115.864V107.08C106.865 106.173 106.646 105.352 106.209 104.616C105.771 103.88 105.185 103.293 104.449 102.856C103.713 102.419 102.891 102.2 101.985 102.2C101.089 102.2 100.267 102.419 99.5208 102.856C98.7848 103.293 98.1981 103.88 97.7608 104.616C97.3234 105.352 97.1048 106.173 97.1048 107.08V115.864C97.1048 116.76 97.3234 117.581 97.7608 118.328C98.1981 119.064 98.7848 119.651 99.5208 120.088C100.267 120.525 101.089 120.744 101.985 120.744Z" fill="white"/>
<path d="M116.864 123L116.264 122.4L124.322 114.36L124.922 114.954L116.864 123ZM123.122 123.18C122.726 123.18 122.364 123.084 122.036 122.892C121.712 122.696 121.452 122.436 121.256 122.112C121.06 121.784 120.962 121.42 120.962 121.02C120.962 120.628 121.062 120.268 121.262 119.94C121.462 119.612 121.726 119.35 122.054 119.154C122.382 118.958 122.738 118.86 123.122 118.86C123.518 118.86 123.88 118.958 124.208 119.154C124.536 119.346 124.796 119.606 124.988 119.934C125.184 120.258 125.282 120.62 125.282 121.02C125.282 121.42 125.184 121.784 124.988 122.112C124.796 122.436 124.536 122.696 124.208 122.892C123.88 123.084 123.518 123.18 123.122 123.18ZM123.122 122.382C123.366 122.382 123.592 122.32 123.8 122.196C124.008 122.072 124.174 121.908 124.298 121.704C124.422 121.496 124.484 121.268 124.484 121.02C124.484 120.772 124.422 120.546 124.298 120.342C124.174 120.134 124.008 119.968 123.8 119.844C123.592 119.72 123.366 119.658 123.122 119.658C122.874 119.658 122.646 119.72 122.438 119.844C122.234 119.968 122.068 120.134 121.94 120.342C121.816 120.546 121.754 120.772 121.754 121.02C121.754 121.268 121.816 121.496 121.94 121.704C122.068 121.908 122.234 122.072 122.438 122.196C122.646 122.32 122.874 122.382 123.122 122.382ZM118.064 118.5C117.668 118.5 117.306 118.404 116.978 118.212C116.65 118.016 116.388 117.756 116.192 117.432C116 117.104 115.904 116.74 115.904 116.34C115.904 115.948 116.004 115.588 116.204 115.26C116.404 114.932 116.668 114.67 116.996 114.474C117.324 114.278 117.68 114.18 118.064 114.18C118.46 114.18 118.82 114.278 119.144 114.474C119.472 114.666 119.734 114.926 119.93 115.254C120.126 115.578 120.224 115.94 120.224 116.34C120.224 116.74 120.126 117.104 119.93 117.432C119.734 117.756 119.472 118.016 119.144 118.212C118.82 118.404 118.46 118.5 118.064 118.5ZM118.064 117.702C118.312 117.702 118.538 117.64 118.742 117.516C118.95 117.392 119.116 117.228 119.24 117.024C119.364 116.816 119.426 116.588 119.426 116.34C119.426 116.092 119.364 115.866 119.24 115.662C119.116 115.454 118.95 115.288 118.742 115.164C118.538 115.04 118.312 114.978 118.064 114.978C117.816 114.978 117.588 115.04 117.38 115.164C117.176 115.288 117.012 115.454 116.888 115.662C116.764 115.866 116.702 116.092 116.702 116.34C116.702 116.588 116.764 116.816 116.888 117.024C117.012 117.228 117.176 117.392 117.38 117.516C117.588 117.64 117.816 117.702 118.064 117.702Z" fill="white" fill-opacity="0.8"/>
<path d="M68.0527 171.21C67.53 171.21 67.047 171.103 66.6037 170.888C66.1603 170.673 65.7823 170.377 65.4697 169.999C65.157 169.621 64.933 169.187 64.7977 168.697L65.7847 168.431C65.8733 168.795 66.0343 169.11 66.2677 169.376C66.501 169.637 66.774 169.84 67.0867 169.985C67.404 170.13 67.7353 170.202 68.0807 170.202C68.5287 170.202 68.93 170.095 69.2847 169.88C69.644 169.661 69.9287 169.371 70.1387 169.012C70.3487 168.653 70.4537 168.258 70.4537 167.829C70.4537 167.386 70.344 166.987 70.1247 166.632C69.9053 166.273 69.616 165.988 69.2567 165.778C68.8973 165.568 68.5053 165.463 68.0807 165.463C67.6047 165.463 67.194 165.568 66.8487 165.778C66.5033 165.983 66.228 166.242 66.0227 166.555L65.0847 166.163L65.3927 160.92H70.7757V161.907H65.8477L66.3587 161.424L66.0857 165.897L65.8267 165.554C66.116 165.223 66.466 164.964 66.8767 164.777C67.2873 164.59 67.719 164.497 68.1717 164.497C68.7923 164.497 69.3523 164.646 69.8517 164.945C70.351 165.239 70.7477 165.638 71.0417 166.142C71.3357 166.646 71.4827 167.208 71.4827 167.829C71.4827 168.445 71.3263 169.01 71.0137 169.523C70.701 170.032 70.2857 170.44 69.7677 170.748C69.2497 171.056 68.678 171.21 68.0527 171.21ZM76.4477 171.21C75.8271 171.21 75.2671 171.065 74.7677 170.776C74.2731 170.487 73.8811 170.095 73.5917 169.6C73.3024 169.101 73.1577 168.541 73.1577 167.92V164C73.1577 163.379 73.3024 162.822 73.5917 162.327C73.8811 161.828 74.2731 161.433 74.7677 161.144C75.2671 160.855 75.8271 160.71 76.4477 160.71C77.0684 160.71 77.6261 160.855 78.1207 161.144C78.6201 161.433 79.0144 161.828 79.3037 162.327C79.5931 162.822 79.7377 163.379 79.7377 164V167.92C79.7377 168.541 79.5931 169.101 79.3037 169.6C79.0144 170.095 78.6201 170.487 78.1207 170.776C77.6261 171.065 77.0684 171.21 76.4477 171.21ZM76.4477 170.216C76.8631 170.216 77.2411 170.116 77.5817 169.915C77.9224 169.71 78.1931 169.437 78.3937 169.096C78.5944 168.755 78.6947 168.38 78.6947 167.969V163.951C78.6947 163.536 78.5944 163.158 78.3937 162.817C78.1931 162.476 77.9224 162.206 77.5817 162.005C77.2411 161.8 76.8631 161.697 76.4477 161.697C76.0324 161.697 75.6544 161.8 75.3137 162.005C74.9731 162.206 74.7024 162.476 74.5017 162.817C74.3011 163.158 74.2007 163.536 74.2007 163.951V167.969C74.2007 168.38 74.3011 168.755 74.5017 169.096C74.7024 169.437 74.9731 169.71 75.3137 169.915C75.6544 170.116 76.0324 170.216 76.4477 170.216ZM84.9927 171.21C84.372 171.21 83.812 171.065 83.3127 170.776C82.818 170.487 82.426 170.095 82.1367 169.6C81.8473 169.101 81.7027 168.541 81.7027 167.92V164C81.7027 163.379 81.8473 162.822 82.1367 162.327C82.426 161.828 82.818 161.433 83.3127 161.144C83.812 160.855 84.372 160.71 84.9927 160.71C85.6133 160.71 86.171 160.855 86.6657 161.144C87.165 161.433 87.5593 161.828 87.8487 162.327C88.138 162.822 88.2827 163.379 88.2827 164V167.92C88.2827 168.541 88.138 169.101 87.8487 169.6C87.5593 170.095 87.165 170.487 86.6657 170.776C86.171 171.065 85.6133 171.21 84.9927 171.21ZM84.9927 170.216C85.408 170.216 85.786 170.116 86.1267 169.915C86.4673 169.71 86.738 169.437 86.9387 169.096C87.1393 168.755 87.2397 168.38 87.2397 167.969V163.951C87.2397 163.536 87.1393 163.158 86.9387 162.817C86.738 162.476 86.4673 162.206 86.1267 162.005C85.786 161.8 85.408 161.697 84.9927 161.697C84.5773 161.697 84.1993 161.8 83.8587 162.005C83.518 162.206 83.2473 162.476 83.0467 162.817C82.846 163.158 82.7457 163.536 82.7457 163.951V167.969C82.7457 168.38 82.846 168.755 83.0467 169.096C83.2473 169.437 83.518 169.71 83.8587 169.915C84.1993 170.116 84.5773 170.216 84.9927 170.216ZM93.5376 171.21C92.9169 171.21 92.3569 171.065 91.8576 170.776C91.3629 170.487 90.9709 170.095 90.6816 169.6C90.3922 169.101 90.2476 168.541 90.2476 167.92V164C90.2476 163.379 90.3922 162.822 90.6816 162.327C90.9709 161.828 91.3629 161.433 91.8576 161.144C92.3569 160.855 92.9169 160.71 93.5376 160.71C94.1582 160.71 94.7159 160.855 95.2106 161.144C95.7099 161.433 96.1042 161.828 96.3936 162.327C96.6829 162.822 96.8276 163.379 96.8276 164V167.92C96.8276 168.541 96.6829 169.101 96.3936 169.6C96.1042 170.095 95.7099 170.487 95.2106 170.776C94.7159 171.065 94.1582 171.21 93.5376 171.21ZM93.5376 170.216C93.9529 170.216 94.3309 170.116 94.6716 169.915C95.0122 169.71 95.2829 169.437 95.4836 169.096C95.6842 168.755 95.7846 168.38 95.7846 167.969V163.951C95.7846 163.536 95.6842 163.158 95.4836 162.817C95.2829 162.476 95.0122 162.206 94.6716 162.005C94.3309 161.8 93.9529 161.697 93.5376 161.697C93.1222 161.697 92.7442 161.8 92.4036 162.005C92.0629 162.206 91.7922 162.476 91.5916 162.817C91.3909 163.158 91.2906 163.536 91.2906 163.951V167.969C91.2906 168.38 91.3909 168.755 91.5916 169.096C91.7922 169.437 92.0629 169.71 92.4036 169.915C92.7442 170.116 93.1222 170.216 93.5376 170.216ZM101.341 160.92H102.398L99.7095 171H98.6525L101.341 160.92ZM104.759 171L108.469 161.921H103.8V160.92H109.568V161.921L105.865 171H104.759ZM114.538 171.21C113.917 171.21 113.357 171.065 112.858 170.776C112.363 170.487 111.971 170.095 111.682 169.6C111.392 169.101 111.248 168.541 111.248 167.92V164C111.248 163.379 111.392 162.822 111.682 162.327C111.971 161.828 112.363 161.433 112.858 161.144C113.357 160.855 113.917 160.71 114.538 160.71C115.158 160.71 115.716 160.855 116.211 161.144C116.71 161.433 117.104 161.828 117.394 162.327C117.683 162.822 117.828 163.379 117.828 164V167.92C117.828 168.541 117.683 169.101 117.394 169.6C117.104 170.095 116.71 170.487 116.211 170.776C115.716 171.065 115.158 171.21 114.538 171.21ZM114.538 170.216C114.953 170.216 115.331 170.116 115.672 169.915C116.012 169.71 116.283 169.437 116.484 169.096C116.684 168.755 116.785 168.38 116.785 167.969V163.951C116.785 163.536 116.684 163.158 116.484 162.817C116.283 162.476 116.012 162.206 115.672 162.005C115.331 161.8 114.953 161.697 114.538 161.697C114.122 161.697 113.744 161.8 113.404 162.005C113.063 162.206 112.792 162.476 112.592 162.817C112.391 163.158 112.291 163.536 112.291 163.951V167.969C112.291 168.38 112.391 168.755 112.592 169.096C112.792 169.437 113.063 169.71 113.404 169.915C113.744 170.116 114.122 170.216 114.538 170.216ZM123.083 171.21C122.462 171.21 121.902 171.065 121.403 170.776C120.908 170.487 120.516 170.095 120.227 169.6C119.937 169.101 119.793 168.541 119.793 167.92V164C119.793 163.379 119.937 162.822 120.227 162.327C120.516 161.828 120.908 161.433 121.403 161.144C121.902 160.855 122.462 160.71 123.083 160.71C123.703 160.71 124.261 160.855 124.756 161.144C125.255 161.433 125.649 161.828 125.939 162.327C126.228 162.822 126.373 163.379 126.373 164V167.92C126.373 168.541 126.228 169.101 125.939 169.6C125.649 170.095 125.255 170.487 124.756 170.776C124.261 171.065 123.703 171.21 123.083 171.21ZM123.083 170.216C123.498 170.216 123.876 170.116 124.217 169.915C124.557 169.71 124.828 169.437 125.029 169.096C125.229 168.755 125.33 168.38 125.33 167.969V163.951C125.33 163.536 125.229 163.158 125.029 162.817C124.828 162.476 124.557 162.206 124.217 162.005C123.876 161.8 123.498 161.697 123.083 161.697C122.667 161.697 122.289 161.8 121.949 162.005C121.608 162.206 121.337 162.476 121.137 162.817C120.936 163.158 120.836 163.536 120.836 163.951V167.969C120.836 168.38 120.936 168.755 121.137 169.096C121.337 169.437 121.608 169.71 121.949 169.915C122.289 170.116 122.667 170.216 123.083 170.216ZM131.627 171.21C131.007 171.21 130.447 171.065 129.947 170.776C129.453 170.487 129.061 170.095 128.771 169.6C128.482 169.101 128.337 168.541 128.337 167.92V164C128.337 163.379 128.482 162.822 128.771 162.327C129.061 161.828 129.453 161.433 129.947 161.144C130.447 160.855 131.007 160.71 131.627 160.71C132.248 160.71 132.806 160.855 133.3 161.144C133.8 161.433 134.194 161.828 134.483 162.327C134.773 162.822 134.917 163.379 134.917 164V167.92C134.917 168.541 134.773 169.101 134.483 169.6C134.194 170.095 133.8 170.487 133.3 170.776C132.806 171.065 132.248 171.21 131.627 171.21ZM131.627 170.216C132.043 170.216 132.421 170.116 132.761 169.915C133.102 169.71 133.373 169.437 133.573 169.096C133.774 168.755 133.874 168.38 133.874 167.969V163.951C133.874 163.536 133.774 163.158 133.573 162.817C133.373 162.476 133.102 162.206 132.761 162.005C132.421 161.8 132.043 161.697 131.627 161.697C131.212 161.697 130.834 161.8 130.493 162.005C130.153 162.206 129.882 162.476 129.681 162.817C129.481 163.158 129.38 163.536 129.38 163.951V167.969C129.38 168.38 129.481 168.755 129.681 169.096C129.882 169.437 130.153 169.71 130.493 169.915C130.834 170.116 131.212 170.216 131.627 170.216Z" fill="white" fill-opacity="0.71"/>
</g>
</svg>
